<mxfile host="app.diagrams.net" modified="2023-08-12T11:34:07.395Z" agent="Mozilla/5.0 (Windows NT 10.0; Win64; x64) AppleWebKit/537.36 (KHTML, like Gecko) Chrome/115.0.0.0 Safari/537.36 Edg/115.0.1901.200" version="21.6.8" etag="zcpiHQ2XATQK2LaB5c_3" type="github">
  <diagram name="Page-1" id="3wAYmo3oMuuQHAZAUP2u">
    <mxGraphModel>
      <root>
        <mxCell id="0" />
        <mxCell id="1" parent="0" />
      </root>
    </mxGraphModel>
  </diagram>
</mxfile>
